<svg width="795" height="192" viewBox="0 0 795 192" fill="none" xmlns="http://www.w3.org/2000/svg">
<g filter="url(#filter0_d_19_12)">
<path d="M34.125 181H5.375C4.54167 181 4.125 180.583 4.125 179.75L4.625 3.875C4.625 3.20833 4.95833 2.875 5.625 2.875H87.625C88.4583 2.875 88.875 3.20833 88.875 3.875V32.75C88.875 33.4167 88.5417 33.75 87.875 33.75H35.375V73.5H87.875C88.5417 73.5 88.875 73.9167 88.875 74.75L89.125 103.75C89.125 104.417 88.7083 104.75 87.875 104.75H35.375V179.75C35.375 180.583 34.9583 181 34.125 181ZM103.25 179.75L135 3.875C135.167 3.20833 135.583 2.875 136.25 2.875H173.375C174.042 2.875 174.458 3.20833 174.625 3.875L205.125 179.75C205.208 180.583 204.875 181 204.125 181H175.75C174.917 181 174.458 180.583 174.375 179.75L171.625 161H136.75L134 179.75C133.917 180.583 133.5 181 132.75 181H104.25C103.583 181 103.25 180.583 103.25 179.75ZM153.375 61.75L141.875 133.625H166.5L156 61.75L154.5 52.25L153.375 61.75ZM264.625 183.5C255.542 183.5 247.167 181.167 239.5 176.5C231.917 171.833 225.833 165.625 221.25 157.875C216.75 150.042 214.5 141.458 214.5 132.125V120.375C214.5 119.458 214.917 119 215.75 119H244.5C245.167 119 245.5 119.458 245.5 120.375V132.125C245.5 137.708 247.375 142.542 251.125 146.625C254.875 150.625 259.375 152.625 264.625 152.625C269.958 152.625 274.5 150.583 278.25 146.5C282 142.333 283.875 137.542 283.875 132.125C283.875 125.875 279.792 120.417 271.625 115.75C270.292 114.917 268.542 113.917 266.375 112.75C264.292 111.5 261.792 110.083 258.875 108.5C255.958 106.917 253.125 105.375 250.375 103.875C247.625 102.292 244.958 100.792 242.375 99.375C233.042 93.875 226.083 87 221.5 78.75C217 70.4167 214.75 61.0833 214.75 50.75C214.75 41.25 217.083 32.6667 221.75 25C226.417 17.4167 232.5 11.4167 240 7C247.583 2.5 255.792 0.25 264.625 0.25C273.708 0.25 282.042 2.5 289.625 7C297.208 11.5833 303.25 17.6667 307.75 25.25C312.333 32.8333 314.625 41.3333 314.625 50.75V71.75C314.625 72.4167 314.292 72.75 313.625 72.75H284.875C284.208 72.75 283.875 72.4167 283.875 71.75L283.625 50.75C283.625 44.75 281.75 39.875 278 36.125C274.25 32.375 269.792 30.5 264.625 30.5C259.375 30.5 254.875 32.5 251.125 36.5C247.375 40.5 245.5 45.25 245.5 50.75C245.5 56.3333 246.667 61 249 64.75C251.417 68.5 255.792 72.0833 262.125 75.5C262.792 75.8333 264.333 76.6667 266.75 78C269.167 79.3333 271.833 80.8333 274.75 82.5C277.75 84.0833 280.458 85.5417 282.875 86.875C285.292 88.125 286.75 88.875 287.25 89.125C295.75 93.875 302.458 99.7083 307.375 106.625C312.375 113.542 314.875 122.042 314.875 132.125C314.875 141.875 312.625 150.625 308.125 158.375C303.542 166.125 297.458 172.25 289.875 176.75C282.292 181.25 273.875 183.5 264.625 183.5ZM387.25 181H358.375C357.625 181 357.25 180.583 357.25 179.75V33.75H324C323.167 33.75 322.75 33.3333 322.75 32.5L323 3.875C323 3.20833 323.333 2.875 324 2.875H421.25C422.167 2.875 422.625 3.20833 422.625 3.875V32.5C422.625 33.3333 422.292 33.75 421.625 33.75H388L388.25 179.75C388.25 180.583 387.917 181 387.25 181ZM482.25 183.5C473 183.5 464.542 181.167 456.875 176.5C449.292 171.833 443.25 165.583 438.75 157.75C434.333 149.833 432.125 141.042 432.125 131.375L432.375 51.5C432.375 42 434.542 33.4167 438.875 25.75C443.208 18 449.167 11.7917 456.75 7.125C464.417 2.375 472.917 0 482.25 0C491.75 0 500.208 2.29167 507.625 6.875C515.125 11.4583 521.083 17.6667 525.5 25.5C530 33.25 532.25 41.9167 532.25 51.5V63.25C532.25 63.9167 531.917 64.25 531.25 64.25H502.5C501.833 64.25 501.5 63.9167 501.5 63.25V51.5C501.5 45.8333 499.667 40.9583 496 36.875C492.333 32.7917 487.75 30.75 482.25 30.75C476.167 30.75 471.5 32.8333 468.25 37C465 41.1667 463.375 46 463.375 51.5V131.375C463.375 137.625 465.208 142.75 468.875 146.75C472.542 150.667 477 152.625 482.25 152.625C487.75 152.625 492.333 150.458 496 146.125C499.667 141.708 501.5 136.792 501.5 131.375V119.5C501.5 118.833 501.833 118.5 502.5 118.5H531.5C532.167 118.5 532.5 118.833 532.5 119.5V131.375C532.5 140.958 530.25 149.708 525.75 157.625C521.167 165.458 515.125 171.75 507.625 176.5C500.125 181.167 491.667 183.5 482.25 183.5ZM581.125 181H552.125C551.458 181 551.125 180.583 551.125 179.75L551.625 3.875C551.625 3.20833 551.958 2.875 552.625 2.875H604.375C613.625 2.875 622.125 5.125 629.875 9.625C637.625 14.125 643.792 20.1667 648.375 27.75C653.042 35.3333 655.375 43.9167 655.375 53.5C655.375 59.75 654.417 65.4167 652.5 70.5C650.583 75.5833 648.333 79.875 645.75 83.375C643.25 86.875 640.958 89.4583 638.875 91.125C648.125 101.375 652.75 113.417 652.75 127.25L653 179.75C653 180.583 652.583 181 651.75 181H622.75C622.083 181 621.75 180.75 621.75 180.25V127.25C621.75 121.083 619.583 115.75 615.25 111.25C610.917 106.75 605.583 104.5 599.25 104.5H582.375L582.125 179.75C582.125 180.583 581.792 181 581.125 181ZM604.375 33.5H582.375V73.75H604.375C609.625 73.75 614.292 71.7917 618.375 67.875C622.542 63.9583 624.625 59.1667 624.625 53.5C624.625 48.0833 622.625 43.4167 618.625 39.5C614.625 35.5 609.875 33.5 604.375 33.5ZM704.625 181H675.625C674.958 181 674.625 180.583 674.625 179.75L675.125 3.875C675.125 3.20833 675.458 2.875 676.125 2.875H707.375C708.042 2.875 708.625 3.20833 709.125 3.875L732.5 37.625L755.75 3.875C756.25 3.20833 756.875 2.875 757.625 2.875H789C789.75 2.875 790.125 3.20833 790.125 3.875L790.625 179.75C790.625 180.583 790.292 181 789.625 181H760.625C759.958 181 759.625 180.583 759.625 179.75L759.375 49.125L732.5 88.125L705.875 49.125L705.625 179.75C705.625 180.583 705.292 181 704.625 181Z" fill="#0094FF"/>
<path d="M4.125 179.75L3.125 179.747V179.75H4.125ZM4.625 3.875L5.625 3.87784V3.875H4.625ZM35.375 33.75V32.75H34.375V33.75H35.375ZM35.375 73.5H34.375V74.5H35.375V73.5ZM88.875 74.75H87.875L87.875 74.7586L88.875 74.75ZM89.125 103.75H90.125L90.125 103.741L89.125 103.75ZM35.375 104.75V103.75H34.375V104.75H35.375ZM34.125 180H5.375V182H34.125V180ZM5.375 180C5.11248 180 5.09926 179.935 5.14461 179.98C5.18995 180.026 5.125 180.013 5.125 179.75H3.125C3.125 180.321 3.26838 180.933 3.73039 181.395C4.19241 181.857 4.80419 182 5.375 182V180ZM5.125 179.753L5.625 3.87784L3.625 3.87216L3.125 179.747L5.125 179.753ZM5.625 3.875C5.625 3.83295 5.62765 3.8025 5.63057 3.78205C5.63348 3.76167 5.63639 3.75311 5.63618 3.75373C5.63587 3.75466 5.63242 3.76462 5.62312 3.78012C5.61852 3.78778 5.61278 3.79632 5.60576 3.80535C5.59873 3.81438 5.59082 3.82339 5.58211 3.83211C5.57339 3.84082 5.56438 3.84873 5.55535 3.85576C5.54632 3.86278 5.53778 3.86852 5.53012 3.87312C5.51462 3.88242 5.50466 3.88587 5.50373 3.88618C5.50311 3.88639 5.51167 3.88348 5.53205 3.88057C5.5525 3.87765 5.58295 3.875 5.625 3.875V1.875C5.13752 1.875 4.58824 1.99755 4.16789 2.41789C3.74755 2.83824 3.625 3.38752 3.625 3.875H5.625ZM5.625 3.875H87.625V1.875H5.625V3.875ZM87.625 3.875C87.7699 3.875 87.8621 3.88984 87.9142 3.90373C87.9644 3.91712 87.9622 3.92541 87.9378 3.90587C87.9088 3.88263 87.8853 3.84971 87.8738 3.82212C87.8648 3.80063 87.875 3.81078 87.875 3.875H89.875C89.875 3.32096 89.6908 2.74702 89.1872 2.34413C88.7262 1.97533 88.1485 1.875 87.625 1.875V3.875ZM87.875 3.875V32.75H89.875V3.875H87.875ZM87.875 32.75C87.875 32.7921 87.8723 32.8225 87.8694 32.843C87.8665 32.8633 87.8636 32.8719 87.8638 32.8713C87.8641 32.8703 87.8676 32.8604 87.8769 32.8449C87.8815 32.8372 87.8872 32.8287 87.8942 32.8197C87.9013 32.8106 87.9092 32.8016 87.9179 32.7929C87.9266 32.7842 87.9356 32.7763 87.9447 32.7692C87.9537 32.7622 87.9622 32.7565 87.9699 32.7519C87.9854 32.7426 87.9953 32.7391 87.9963 32.7388C87.9969 32.7386 87.9883 32.7415 87.968 32.7444C87.9475 32.7473 87.9171 32.75 87.875 32.75V34.75C88.3625 34.75 88.9118 34.6275 89.3321 34.2071C89.7525 33.7868 89.875 33.2375 89.875 32.75H87.875ZM87.875 32.75H35.375V34.75H87.875V32.75ZM34.375 33.75V73.5H36.375V33.75H34.375ZM35.375 74.5H87.875V72.5H35.375V74.5ZM87.875 74.5C87.9392 74.5 87.9494 74.5102 87.9279 74.5012C87.9003 74.4897 87.8674 74.4662 87.8441 74.4372C87.8246 74.4128 87.8329 74.4106 87.8463 74.4608C87.8602 74.5129 87.875 74.6051 87.875 74.75H89.875C89.875 74.2265 89.7747 73.6488 89.4059 73.1878C89.003 72.6842 88.429 72.5 87.875 72.5V74.5ZM87.875 74.7586L88.125 103.759L90.125 103.741L89.875 74.7414L87.875 74.7586ZM88.125 103.75C88.125 103.814 88.1148 103.824 88.1238 103.803C88.1353 103.775 88.1588 103.742 88.1878 103.719C88.2122 103.7 88.2144 103.708 88.1642 103.721C88.1121 103.735 88.0199 103.75 87.875 103.75V105.75C88.3985 105.75 88.9762 105.65 89.4372 105.281C89.9408 104.878 90.125 104.304 90.125 103.75H88.125ZM87.875 103.75H35.375V105.75H87.875V103.75ZM34.375 104.75V179.75H36.375V104.75H34.375ZM34.375 179.75C34.375 180.013 34.31 180.026 34.3554 179.98C34.4007 179.935 34.3875 180 34.125 180V182C34.6958 182 35.3076 181.857 35.7696 181.395C36.2316 180.933 36.375 180.321 36.375 179.75H34.375ZM103.25 179.75L102.266 179.572L102.25 179.66V179.75H103.25ZM135 3.875L134.03 3.63246L134.022 3.66467L134.016 3.69735L135 3.875ZM174.625 3.875L175.61 3.70413L175.604 3.66802L175.595 3.63246L174.625 3.875ZM205.125 179.75L206.12 179.65L206.116 179.615L206.11 179.579L205.125 179.75ZM174.375 179.75L175.37 179.65L175.368 179.628L175.364 179.605L174.375 179.75ZM171.625 161L172.614 160.855L172.489 160H171.625V161ZM136.75 161V160H135.886L135.761 160.855L136.75 161ZM134 179.75L133.011 179.605L133.007 179.628L133.005 179.65L134 179.75ZM153.375 61.75L154.362 61.908L154.366 61.8879L154.368 61.8676L153.375 61.75ZM141.875 133.625L140.888 133.467L140.702 134.625H141.875V133.625ZM166.5 133.625V134.625H167.657L167.489 133.48L166.5 133.625ZM156 61.75L156.99 61.6054L156.988 61.594L156 61.75ZM154.5 52.25L155.488 52.094L153.507 52.1324L154.5 52.25ZM104.234 179.928L135.984 4.05265L134.016 3.69735L102.266 179.572L104.234 179.928ZM135.97 4.11754C135.993 4.02596 136.018 3.97115 136.036 3.94137C136.052 3.91357 136.062 3.90608 136.062 3.90587C136.063 3.90512 136.065 3.90393 136.068 3.90221C136.071 3.90043 136.079 3.89708 136.091 3.89328C136.116 3.88556 136.166 3.875 136.25 3.875V1.875C135.748 1.875 135.239 2.00321 134.813 2.34413C134.39 2.68254 134.151 3.14827 134.03 3.63246L135.97 4.11754ZM136.25 3.875H173.375V1.875H136.25V3.875ZM173.375 3.875C173.459 3.875 173.509 3.88556 173.534 3.89328C173.546 3.89708 173.554 3.90043 173.557 3.90221C173.56 3.90393 173.562 3.90512 173.563 3.90587C173.563 3.90608 173.573 3.91357 173.589 3.94137C173.607 3.97115 173.632 4.02596 173.655 4.11754L175.595 3.63246C175.474 3.14827 175.235 2.68254 174.812 2.34413C174.386 2.00321 173.877 1.875 173.375 1.875V3.875ZM173.64 4.04587L204.14 179.921L206.11 179.579L175.61 3.70413L173.64 4.04587ZM204.13 179.85C204.144 179.988 204.136 180.067 204.129 180.101C204.123 180.131 204.122 180.106 204.157 180.063C204.173 180.042 204.192 180.025 204.212 180.01C204.231 179.997 204.245 179.99 204.25 179.989C204.258 179.986 204.224 180 204.125 180V182C204.674 182 205.294 181.843 205.718 181.312C206.12 180.81 206.173 180.184 206.12 179.65L204.13 179.85ZM204.125 180H175.75V182H204.125V180ZM175.75 180C175.623 180 175.545 179.984 175.502 179.97C175.482 179.963 175.469 179.957 175.463 179.954C175.457 179.951 175.455 179.948 175.454 179.948C175.453 179.947 175.45 179.944 175.446 179.938C175.442 179.932 175.434 179.92 175.425 179.899C175.407 179.857 175.383 179.779 175.37 179.65L173.38 179.85C173.437 180.425 173.64 181.002 174.109 181.427C174.578 181.854 175.172 182 175.75 182V180ZM175.364 179.605L172.614 160.855L170.636 161.145L173.386 179.895L175.364 179.605ZM171.625 160H136.75V162H171.625V160ZM135.761 160.855L133.011 179.605L134.989 179.895L137.739 161.145L135.761 160.855ZM133.005 179.65C132.977 179.932 132.906 179.992 132.918 179.98C132.924 179.975 132.927 179.975 132.914 179.98C132.896 179.987 132.846 180 132.75 180V182C133.314 182 133.889 181.838 134.332 181.395C134.76 180.966 134.94 180.401 134.995 179.85L133.005 179.65ZM132.75 180H104.25V182H132.75V180ZM104.25 180C104.186 180 104.176 179.99 104.197 179.999C104.225 180.01 104.258 180.034 104.281 180.063C104.3 180.087 104.292 180.089 104.279 180.039C104.265 179.987 104.25 179.895 104.25 179.75H102.25C102.25 180.274 102.35 180.851 102.719 181.312C103.122 181.816 103.696 182 104.25 182V180ZM152.388 61.592L140.888 133.467L142.862 133.783L154.362 61.908L152.388 61.592ZM141.875 134.625H166.5V132.625H141.875V134.625ZM167.489 133.48L156.989 61.6054L155.011 61.8946L165.511 133.77L167.489 133.48ZM156.988 61.594L155.488 52.094L153.512 52.406L155.012 61.906L156.988 61.594ZM153.507 52.1324L152.382 61.6324L154.368 61.8676L155.493 52.3676L153.507 52.1324ZM239.5 176.5L238.976 177.352L238.98 177.354L239.5 176.5ZM221.25 157.875L220.383 158.373L220.389 158.384L221.25 157.875ZM251.125 146.625L250.388 147.301L250.395 147.309L251.125 146.625ZM278.25 146.5L278.987 147.176L278.993 147.169L278.25 146.5ZM271.625 115.75L271.095 116.598L271.112 116.608L271.129 116.618L271.625 115.75ZM266.375 112.75L265.861 113.607L265.88 113.619L265.901 113.63L266.375 112.75ZM250.375 103.875L249.876 104.742L249.886 104.747L249.896 104.753L250.375 103.875ZM242.375 99.375L241.867 100.237L241.881 100.244L241.894 100.252L242.375 99.375ZM221.5 78.75L220.62 79.2252L220.626 79.2356L221.5 78.75ZM221.75 25L220.898 24.4759L220.896 24.4801L221.75 25ZM240 7L240.507 7.86169L240.51 7.85998L240 7ZM289.625 7L290.142 6.14414L290.135 6.14002L289.625 7ZM307.75 25.25L306.89 25.7603L306.894 25.7673L307.75 25.25ZM283.875 71.75H284.875L284.875 71.7381L283.875 71.75ZM283.625 50.75L282.625 50.75L282.625 50.7619L283.625 50.75ZM249 64.75L248.151 65.2783L248.155 65.285L248.159 65.2917L249 64.75ZM262.125 75.5L261.65 76.3801L261.664 76.3875L261.678 76.3944L262.125 75.5ZM274.75 82.5L274.254 83.3682L274.268 83.3766L274.283 83.3844L274.75 82.5ZM282.875 86.875L282.392 87.7506L282.404 87.7571L282.416 87.7632L282.875 86.875ZM287.25 89.125L287.738 88.2521L287.718 88.2408L287.697 88.2306L287.25 89.125ZM307.375 106.625L306.56 107.204L306.565 107.211L307.375 106.625ZM308.125 158.375L308.986 158.884L308.99 158.877L308.125 158.375ZM264.625 182.5C255.723 182.5 247.528 180.216 240.02 175.646L238.98 177.354C246.805 182.117 255.361 184.5 264.625 184.5V182.5ZM240.024 175.648C232.581 171.068 226.612 164.978 222.111 157.366L220.389 158.384C225.054 166.272 231.253 172.599 238.976 177.352L240.024 175.648ZM222.117 157.377C217.707 149.7 215.5 141.29 215.5 132.125H213.5C213.5 141.627 215.793 150.383 220.383 158.373L222.117 157.377ZM215.5 132.125V120.375H213.5V132.125H215.5ZM215.5 120.375C215.5 120.048 215.576 119.99 215.552 120.016C215.54 120.03 215.531 120.031 215.547 120.025C215.57 120.017 215.631 120 215.75 120V118C215.153 118 214.529 118.168 214.073 118.671C213.632 119.156 213.5 119.785 213.5 120.375H215.5ZM215.75 120H244.5V118H215.75V120ZM244.5 120C244.553 120 244.551 120.009 244.521 119.995C244.485 119.979 244.456 119.952 244.441 119.932C244.431 119.918 244.447 119.934 244.466 120.009C244.484 120.085 244.5 120.203 244.5 120.375H246.5C246.5 119.825 246.405 119.232 246.059 118.756C245.669 118.22 245.089 118 244.5 118V120ZM244.5 120.375V132.125H246.5V120.375H244.5ZM244.5 132.125C244.5 137.957 246.468 143.032 250.388 147.301L251.862 145.949C248.282 142.051 246.5 137.46 246.5 132.125H244.5ZM250.395 147.309C254.325 151.501 259.085 153.625 264.625 153.625V151.625C259.665 151.625 255.425 149.749 251.855 145.941L250.395 147.309ZM264.625 153.625C270.251 153.625 275.056 151.457 278.987 147.176L277.513 145.824C273.944 149.71 269.666 151.625 264.625 151.625V153.625ZM278.993 147.169C282.902 142.826 284.875 137.798 284.875 132.125H282.875C282.875 137.285 281.098 141.841 277.507 145.831L278.993 147.169ZM284.875 132.125C284.875 125.355 280.428 119.629 272.121 114.882L271.129 116.618C279.155 121.205 282.875 126.395 282.875 132.125H284.875ZM272.155 114.902C270.796 114.053 269.025 113.041 266.849 111.87L265.901 113.63C268.058 114.792 269.787 115.781 271.095 116.598L272.155 114.902ZM266.889 111.893C264.79 110.633 262.277 109.209 259.352 107.621L258.398 109.379C261.306 110.958 263.793 112.367 265.861 113.607L266.889 111.893ZM259.352 107.621C256.436 106.038 253.603 104.497 250.854 102.997L249.896 104.753C252.647 106.253 255.481 107.795 258.398 109.379L259.352 107.621ZM250.874 103.008C248.118 101.422 245.446 99.9184 242.856 98.4982L241.894 100.252C244.471 101.665 247.132 103.161 249.876 104.742L250.874 103.008ZM242.883 98.5135C233.68 93.0903 226.859 86.3368 222.374 78.2644L220.626 79.2356C225.308 87.6632 232.404 94.6597 241.867 100.237L242.883 98.5135ZM222.38 78.2749C217.966 70.1005 215.75 60.9329 215.75 50.75H213.75C213.75 61.2338 216.034 70.7328 220.62 79.2251L222.38 78.2749ZM215.75 50.75C215.75 41.4222 218.039 33.0207 222.604 25.5199L220.896 24.4801C216.128 32.3127 213.75 41.0778 213.75 50.75H215.75ZM222.602 25.5241C227.185 18.0764 233.151 12.1936 240.507 7.86169L239.493 6.13831C231.849 10.6397 225.648 16.757 220.898 24.4759L222.602 25.5241ZM240.51 7.85998C247.939 3.4518 255.971 1.25 264.625 1.25V-0.75C255.612 -0.75 247.228 1.5482 239.49 6.14002L240.51 7.85998ZM264.625 1.25C273.534 1.25 281.691 3.45448 289.115 7.85998L290.135 6.14002C282.393 1.54552 273.882 -0.75 264.625 -0.75V1.25ZM289.108 7.85583C296.551 12.3544 302.474 18.3193 306.89 25.7603L308.61 24.7397C304.026 17.014 297.866 10.8123 290.142 6.14417L289.108 7.85583ZM306.894 25.7673C311.377 33.1847 313.625 41.5038 313.625 50.75H315.625C315.625 41.1629 313.289 32.482 308.606 24.7327L306.894 25.7673ZM313.625 50.75V71.75H315.625V50.75H313.625ZM313.625 71.75C313.625 71.7921 313.622 71.8225 313.619 71.843C313.617 71.8633 313.614 71.8719 313.614 71.8713C313.614 71.8703 313.618 71.8604 313.627 71.8449C313.631 71.8372 313.637 71.8287 313.644 71.8197C313.651 71.8106 313.659 71.8016 313.668 71.7929C313.677 71.7842 313.686 71.7763 313.695 71.7692C313.704 71.7622 313.712 71.7565 313.72 71.7519C313.735 71.7426 313.745 71.7391 313.746 71.7388C313.747 71.7386 313.738 71.7415 313.718 71.7444C313.697 71.7473 313.667 71.75 313.625 71.75V73.75C314.112 73.75 314.662 73.6275 315.082 73.2071C315.502 72.7868 315.625 72.2375 315.625 71.75H313.625ZM313.625 71.75H284.875V73.75H313.625V71.75ZM284.875 71.75C284.833 71.75 284.803 71.7473 284.782 71.7444C284.762 71.7415 284.753 71.7386 284.754 71.7388C284.755 71.7391 284.765 71.7426 284.78 71.7519C284.788 71.7565 284.796 71.7622 284.805 71.7692C284.814 71.7763 284.823 71.7842 284.832 71.7929C284.841 71.8016 284.849 71.8106 284.856 71.8197C284.863 71.8287 284.869 71.8372 284.873 71.8449C284.882 71.8604 284.886 71.8703 284.886 71.8713C284.886 71.8719 284.883 71.8633 284.881 71.843C284.878 71.8225 284.875 71.7921 284.875 71.75H282.875C282.875 72.2375 282.998 72.7868 283.418 73.2071C283.838 73.6275 284.388 73.75 284.875 73.75V71.75ZM284.875 71.7381L284.625 50.7381L282.625 50.7619L282.875 71.7619L284.875 71.7381ZM284.625 50.75C284.625 44.5228 282.67 39.3807 278.707 35.4179L277.293 36.8321C280.83 40.3693 282.625 44.9772 282.625 50.75H284.625ZM278.707 35.4179C274.775 31.4859 270.065 29.5 264.625 29.5V31.5C269.519 31.5 273.725 33.2641 277.293 36.8321L278.707 35.4179ZM264.625 29.5C259.085 29.5 254.325 31.6245 250.395 35.8161L251.855 37.1839C255.425 33.3755 259.665 31.5 264.625 31.5V29.5ZM250.395 35.8161C246.471 40.002 244.5 44.9968 244.5 50.75H246.5C246.5 45.5032 248.279 40.998 251.855 37.1839L250.395 35.8161ZM244.5 50.75C244.5 56.4712 245.696 61.3328 248.151 65.2783L249.849 64.2217C247.637 60.6672 246.5 56.1955 246.5 50.75H244.5ZM248.159 65.2917C250.707 69.2451 255.25 72.9273 261.65 76.3801L262.6 74.6199C256.333 71.2394 252.126 67.7549 249.841 64.2083L248.159 65.2917ZM261.678 76.3944C262.322 76.7168 263.845 77.5391 266.267 78.8756L267.233 77.1244C264.822 75.7942 263.261 74.9499 262.572 74.6056L261.678 76.3944ZM266.267 78.8756C268.678 80.206 271.341 81.7035 274.254 83.3682L275.246 81.6318C272.326 79.9631 269.655 78.4606 267.233 77.1244L266.267 78.8756ZM274.283 83.3844C277.279 84.9655 279.982 86.4208 282.392 87.7506L283.358 85.9994C280.935 84.6625 278.221 83.2012 275.217 81.6156L274.283 83.3844ZM282.416 87.7632C284.829 89.0116 286.295 89.7656 286.803 90.0194L287.697 88.2306C287.205 87.9844 285.754 87.2384 283.334 85.9868L282.416 87.7632ZM286.762 89.9979C295.152 94.6862 301.741 100.425 306.56 107.204L308.19 106.046C303.176 98.9914 296.348 93.0638 287.738 88.2521L286.762 89.9979ZM306.565 107.211C311.42 113.928 313.875 122.213 313.875 132.125H315.875C315.875 121.871 313.33 113.156 308.185 106.039L306.565 107.211ZM313.875 132.125C313.875 141.715 311.664 150.289 307.26 157.873L308.99 158.877C313.586 150.961 315.875 142.035 315.875 132.125H313.875ZM307.264 157.866C302.765 165.475 296.8 171.478 289.365 175.89L290.385 177.61C298.116 173.022 304.319 166.775 308.986 158.884L307.264 157.866ZM289.365 175.89C281.944 180.294 273.705 182.5 264.625 182.5V184.5C274.045 184.5 282.64 182.206 290.385 177.61L289.365 175.89ZM357.25 33.75H358.25V32.75H357.25V33.75ZM322.75 32.5L321.75 32.4913V32.5H322.75ZM323 3.875L324 3.88373V3.875H323ZM388 33.75V32.75H386.998L387 33.7517L388 33.75ZM388.25 179.75H389.25L389.25 179.748L388.25 179.75ZM387.25 180H358.375V182H387.25V180ZM358.375 180C358.278 180 358.236 179.986 358.23 179.984C358.228 179.983 358.234 179.985 358.244 179.992C358.255 179.999 358.265 180.008 358.275 180.019C358.317 180.066 358.25 180.037 358.25 179.75H356.25C356.25 180.296 356.371 180.893 356.788 181.356C357.223 181.84 357.817 182 358.375 182V180ZM358.25 179.75V33.75H356.25V179.75H358.25ZM357.25 32.75H324V34.75H357.25V32.75ZM324 32.75C323.737 32.75 323.724 32.685 323.77 32.7304C323.815 32.7757 323.75 32.7625 323.75 32.5H321.75C321.75 33.0708 321.893 33.6826 322.355 34.1446C322.817 34.6066 323.429 34.75 324 34.75V32.75ZM323.75 32.5087L324 3.88373L322 3.86627L321.75 32.4913L323.75 32.5087ZM324 3.875C324 3.83295 324.003 3.8025 324.006 3.78205C324.008 3.76167 324.011 3.75311 324.011 3.75373C324.011 3.75466 324.007 3.76462 323.998 3.78012C323.994 3.78778 323.988 3.79632 323.981 3.80535C323.974 3.81438 323.966 3.82339 323.957 3.83211C323.948 3.84082 323.939 3.84873 323.93 3.85576C323.921 3.86278 323.913 3.86852 323.905 3.87312C323.89 3.88242 323.88 3.88587 323.879 3.88618C323.878 3.88639 323.887 3.88348 323.907 3.88057C323.928 3.87765 323.958 3.875 324 3.875V1.875C323.513 1.875 322.963 1.99755 322.543 2.41789C322.123 2.83824 322 3.38752 322 3.875H324ZM324 3.875H421.25V1.875H324V3.875ZM421.25 3.875C421.422 3.875 421.54 3.89094 421.616 3.90935C421.691 3.9276 421.707 3.94381 421.693 3.93374C421.673 3.91929 421.646 3.8901 421.63 3.85415C421.616 3.82371 421.625 3.82222 421.625 3.875H423.625C423.625 3.28591 423.405 2.70592 422.869 2.31626C422.393 1.96965 421.8 1.875 421.25 1.875V3.875ZM421.625 3.875V32.5H423.625V3.875H421.625ZM421.625 32.5C421.625 32.6449 421.61 32.7371 421.596 32.7892C421.583 32.8394 421.575 32.8372 421.594 32.8128C421.617 32.7838 421.65 32.7603 421.678 32.7488C421.699 32.7398 421.689 32.75 421.625 32.75V34.75C422.179 34.75 422.753 34.5658 423.156 34.0622C423.525 33.6012 423.625 33.0235 423.625 32.5H421.625ZM421.625 32.75H388V34.75H421.625V32.75ZM387 33.7517L387.25 179.752L389.25 179.748L389 33.7483L387 33.7517ZM387.25 179.75C387.25 179.895 387.235 179.987 387.221 180.039C387.208 180.089 387.2 180.087 387.219 180.063C387.242 180.034 387.275 180.01 387.303 179.999C387.324 179.99 387.314 180 387.25 180V182C387.804 182 388.378 181.816 388.781 181.312C389.15 180.851 389.25 180.274 389.25 179.75H387.25ZM456.875 176.5L456.351 177.352L456.355 177.354L456.875 176.5ZM438.75 157.75L437.877 158.237L437.883 158.248L438.75 157.75ZM432.125 131.375L431.125 131.372V131.375H432.125ZM432.375 51.5L433.375 51.5031V51.5H432.375ZM438.875 25.75L439.746 26.2421L439.748 26.238L438.875 25.75ZM456.75 7.125L457.274 7.97666L457.277 7.97507L456.75 7.125ZM507.625 6.875L507.099 7.72568L507.104 7.72828L507.625 6.875ZM525.5 25.5L524.629 25.9912L524.635 26.0021L525.5 25.5ZM468.875 146.75L468.138 147.426L468.145 147.433L468.875 146.75ZM496 146.125L496.763 146.771L496.769 146.764L496 146.125ZM525.75 157.625L526.613 158.13L526.619 158.119L525.75 157.625ZM507.625 176.5L508.153 177.349L508.16 177.345L507.625 176.5ZM482.25 182.5C473.178 182.5 464.9 180.214 457.395 175.646L456.355 177.354C464.183 182.119 472.822 184.5 482.25 184.5V182.5ZM457.399 175.648C449.96 171.07 444.035 164.943 439.617 157.252L437.883 158.248C442.465 166.224 448.623 172.596 456.351 177.352L457.399 175.648ZM439.623 157.263C435.295 149.505 433.125 140.883 433.125 131.375H431.125C431.125 141.201 433.371 150.162 437.877 158.237L439.623 157.263ZM433.125 131.378L433.375 51.5031L431.375 51.4969L431.125 131.372L433.125 131.378ZM433.375 51.5C433.375 42.1584 435.504 33.7469 439.746 26.2421L438.004 25.2579C433.58 33.0865 431.375 41.8416 431.375 51.5H433.375ZM439.748 26.238C443.998 18.6375 449.836 12.5541 457.274 7.97666L456.226 6.27334C448.498 11.0292 442.419 17.3625 438.002 25.262L439.748 26.238ZM457.277 7.97507C464.779 3.32661 473.096 1 482.25 1V-1C472.737 -1 464.054 1.42339 456.223 6.27493L457.277 7.97507ZM482.25 1C491.582 1 499.855 3.24865 507.099 7.72567L508.151 6.02433C500.562 1.33469 491.918 -1 482.25 -1V1ZM507.104 7.72828C514.455 12.2206 520.294 18.3028 524.629 25.9911L526.371 25.0089C521.873 17.0306 515.795 10.6961 508.146 6.02172L507.104 7.72828ZM524.635 26.0021C529.04 33.589 531.25 42.0804 531.25 51.5H533.25C533.25 41.753 530.96 32.911 526.365 24.9979L524.635 26.0021ZM531.25 51.5V63.25H533.25V51.5H531.25ZM531.25 63.25C531.25 63.2921 531.247 63.3225 531.244 63.343C531.242 63.3633 531.239 63.3719 531.239 63.3713C531.239 63.3703 531.243 63.3604 531.252 63.3449C531.256 63.3372 531.262 63.3287 531.269 63.3197C531.276 63.3106 531.284 63.3016 531.293 63.2929C531.302 63.2842 531.311 63.2763 531.32 63.2692C531.329 63.2622 531.337 63.2565 531.345 63.2519C531.36 63.2426 531.37 63.2391 531.371 63.2388C531.372 63.2386 531.363 63.2415 531.343 63.2444C531.322 63.2473 531.292 63.25 531.25 63.25V65.25C531.737 65.25 532.287 65.1275 532.707 64.7071C533.127 64.2868 533.25 63.7375 533.25 63.25H531.25ZM531.25 63.25H502.5V65.25H531.25V63.25ZM502.5 63.25C502.458 63.25 502.428 63.2473 502.407 63.2444C502.387 63.2415 502.378 63.2386 502.379 63.2388C502.38 63.2391 502.39 63.2426 502.405 63.2519C502.413 63.2565 502.421 63.2622 502.43 63.2692C502.439 63.2763 502.448 63.2842 502.457 63.2929C502.466 63.3016 502.474 63.3106 502.481 63.3197C502.488 63.3287 502.494 63.3372 502.498 63.3449C502.507 63.3604 502.511 63.3703 502.511 63.3713C502.511 63.3719 502.508 63.3633 502.506 63.343C502.503 63.3225 502.5 63.2921 502.5 63.25H500.5C500.5 63.7375 500.623 64.2868 501.043 64.7071C501.463 65.1275 502.013 65.25 502.5 65.25V63.25ZM502.5 63.25V51.5H500.5V63.25H502.5ZM502.5 51.5C502.5 45.5955 500.581 40.4802 496.744 36.2069L495.256 37.5431C498.752 41.4365 500.5 46.0712 500.5 51.5H502.5ZM496.744 36.2069C492.887 31.9118 488.033 29.75 482.25 29.75V31.75C487.467 31.75 491.779 33.6715 495.256 37.5431L496.744 36.2069ZM482.25 29.75C475.911 29.75 470.931 31.9366 467.461 36.385L469.039 37.615C472.069 33.73 476.422 31.75 482.25 31.75V29.75ZM467.461 36.385C464.069 40.7349 462.375 45.7869 462.375 51.5H464.375C464.375 46.2131 465.931 41.5984 469.039 37.615L467.461 36.385ZM462.375 51.5V131.375H464.375V51.5H462.375ZM462.375 131.375C462.375 137.835 464.277 143.213 468.138 147.426L469.612 146.074C466.14 142.287 464.375 137.415 464.375 131.375H462.375ZM468.145 147.433C471.996 151.547 476.717 153.625 482.25 153.625V151.625C477.283 151.625 473.087 149.786 469.605 146.067L468.145 147.433ZM482.25 153.625C488.055 153.625 492.914 151.321 496.763 146.771L495.237 145.479C491.753 149.596 487.445 151.625 482.25 151.625V153.625ZM496.769 146.764C500.575 142.179 502.5 137.04 502.5 131.375H500.5C500.5 136.544 498.758 141.237 495.231 145.486L496.769 146.764ZM502.5 131.375V119.5H500.5V131.375H502.5ZM502.5 119.5C502.5 119.458 502.503 119.428 502.506 119.407C502.508 119.387 502.511 119.378 502.511 119.379C502.511 119.38 502.507 119.39 502.498 119.405C502.494 119.413 502.488 119.421 502.481 119.43C502.474 119.439 502.466 119.448 502.457 119.457C502.448 119.466 502.439 119.474 502.43 119.481C502.421 119.488 502.413 119.494 502.405 119.498C502.39 119.507 502.38 119.511 502.379 119.511C502.378 119.511 502.387 119.508 502.407 119.506C502.428 119.503 502.458 119.5 502.5 119.5V117.5C502.013 117.5 501.463 117.623 501.043 118.043C500.623 118.463 500.5 119.013 500.5 119.5H502.5ZM502.5 119.5H531.5V117.5H502.5V119.5ZM531.5 119.5C531.542 119.5 531.572 119.503 531.593 119.506C531.613 119.508 531.622 119.511 531.621 119.511C531.62 119.511 531.61 119.507 531.595 119.498C531.587 119.494 531.579 119.488 531.57 119.481C531.561 119.474 531.552 119.466 531.543 119.457C531.534 119.448 531.526 119.439 531.519 119.43C531.512 119.421 531.506 119.413 531.502 119.405C531.493 119.39 531.489 119.38 531.489 119.379C531.489 119.378 531.492 119.387 531.494 119.407C531.497 119.428 531.5 119.458 531.5 119.5H533.5C533.5 119.013 533.377 118.463 532.957 118.043C532.537 117.623 531.987 117.5 531.5 117.5V119.5ZM531.5 119.5V131.375H533.5V119.5H531.5ZM531.5 131.375C531.5 140.795 529.29 149.373 524.881 157.131L526.619 158.119C531.21 150.044 533.5 141.122 533.5 131.375H531.5ZM524.887 157.12C520.382 164.819 514.452 170.993 507.09 175.655L508.16 177.345C515.798 172.507 521.951 166.098 526.613 158.13L524.887 157.12ZM507.097 175.651C499.766 180.212 491.493 182.5 482.25 182.5V184.5C491.841 184.5 500.484 182.121 508.153 177.349L507.097 175.651ZM551.125 179.75L550.125 179.747V179.75H551.125ZM551.625 3.875L552.625 3.87784V3.875H551.625ZM648.375 27.75L647.519 28.2673L647.523 28.2741L648.375 27.75ZM645.75 83.375L644.945 82.7811L644.941 82.7874L644.936 82.7938L645.75 83.375ZM638.875 91.125L638.25 90.3441L637.422 91.0071L638.133 91.795L638.875 91.125ZM652.75 127.25H651.75L651.75 127.255L652.75 127.25ZM653 179.75L654 179.75L654 179.745L653 179.75ZM582.375 104.5V103.5H581.378L581.375 104.497L582.375 104.5ZM582.125 179.75L581.125 179.747V179.75H582.125ZM582.375 33.5V32.5H581.375V33.5H582.375ZM582.375 73.75H581.375V74.75H582.375V73.75ZM618.375 67.875L617.69 67.1463L617.683 67.1533L618.375 67.875ZM618.625 39.5L617.918 40.2071L617.925 40.2145L618.625 39.5ZM581.125 180H552.125V182H581.125V180ZM552.125 180C552.061 180 552.051 179.99 552.072 179.999C552.1 180.01 552.133 180.034 552.156 180.063C552.175 180.087 552.167 180.089 552.154 180.039C552.14 179.987 552.125 179.895 552.125 179.75H550.125C550.125 180.274 550.225 180.851 550.594 181.312C550.997 181.816 551.571 182 552.125 182V180ZM552.125 179.753L552.625 3.87784L550.625 3.87216L550.125 179.747L552.125 179.753ZM552.625 3.875C552.625 3.83295 552.628 3.8025 552.631 3.78205C552.633 3.76167 552.636 3.75311 552.636 3.75373C552.636 3.75466 552.632 3.76462 552.623 3.78012C552.619 3.78778 552.613 3.79632 552.606 3.80535C552.599 3.81438 552.591 3.82339 552.582 3.83211C552.573 3.84082 552.564 3.84873 552.555 3.85576C552.546 3.86278 552.538 3.86852 552.53 3.87312C552.515 3.88242 552.505 3.88587 552.504 3.88618C552.503 3.88639 552.512 3.88348 552.532 3.88057C552.553 3.87765 552.583 3.875 552.625 3.875V1.875C552.138 1.875 551.588 1.99755 551.168 2.41789C550.748 2.83824 550.625 3.38752 550.625 3.875H552.625ZM552.625 3.875H604.375V1.875H552.625V3.875ZM604.375 3.875C613.455 3.875 621.78 6.08128 629.373 10.4898L630.377 8.76021C622.47 4.16872 613.795 1.875 604.375 1.875V3.875ZM629.373 10.4898C636.979 14.9065 643.024 20.8293 647.519 28.2673L649.231 27.2327C644.56 19.504 638.271 13.3435 630.377 8.76021L629.373 10.4898ZM647.523 28.2741C652.086 35.6878 654.375 44.0871 654.375 53.5H656.375C656.375 43.7463 653.998 34.9789 649.227 27.2259L647.523 28.2741ZM654.375 53.5C654.375 59.6474 653.433 65.1922 651.564 70.1472L653.436 70.8528C655.401 65.6411 656.375 59.8526 656.375 53.5H654.375ZM651.564 70.1472C649.672 75.1649 647.463 79.3708 644.945 82.7811L646.555 83.9689C649.204 80.3792 651.494 76.0018 653.436 70.8528L651.564 70.1472ZM644.936 82.7938C642.461 86.2586 640.232 88.7591 638.25 90.3441L639.5 91.9059C641.685 90.1575 644.039 87.4914 646.564 83.9562L644.936 82.7938ZM638.133 91.795C647.216 101.861 651.75 113.664 651.75 127.25H653.75C653.75 113.17 649.034 100.889 639.617 90.455L638.133 91.795ZM651.75 127.255L652 179.755L654 179.745L653.75 127.245L651.75 127.255ZM652 179.75C652 180.013 651.935 180.026 651.98 179.98C652.026 179.935 652.013 180 651.75 180V182C652.321 182 652.933 181.857 653.395 181.395C653.857 180.933 654 180.321 654 179.75H652ZM651.75 180H622.75V182H651.75V180ZM622.75 180C622.643 180 622.581 179.99 622.555 179.983C622.53 179.977 622.555 179.979 622.6 180.012C622.651 180.051 622.698 180.107 622.726 180.172C622.752 180.231 622.75 180.265 622.75 180.25H620.75C620.75 180.744 620.93 181.26 621.4 181.613C621.816 181.925 622.321 182 622.75 182V180ZM622.75 180.25V127.25H620.75V180.25H622.75ZM622.75 127.25C622.75 120.821 620.48 115.24 615.97 110.556L614.53 111.944C618.686 116.26 620.75 121.346 620.75 127.25H622.75ZM615.97 110.556C611.446 105.858 605.851 103.5 599.25 103.5V105.5C605.316 105.5 610.388 107.642 614.53 111.944L615.97 110.556ZM599.25 103.5H582.375V105.5H599.25V103.5ZM581.375 104.497L581.125 179.747L583.125 179.753L583.375 104.503L581.375 104.497ZM581.125 179.75C581.125 179.895 581.11 179.987 581.096 180.039C581.083 180.089 581.075 180.087 581.094 180.063C581.117 180.034 581.15 180.01 581.178 179.999C581.199 179.99 581.189 180 581.125 180V182C581.679 182 582.253 181.816 582.656 181.312C583.025 180.851 583.125 180.274 583.125 179.75H581.125ZM604.375 32.5H582.375V34.5H604.375V32.5ZM581.375 33.5V73.75H583.375V33.5H581.375ZM582.375 74.75H604.375V72.75H582.375V74.75ZM604.375 74.75C609.904 74.75 614.814 72.6767 619.067 68.5967L617.683 67.1533C613.77 70.9066 609.346 72.75 604.375 72.75V74.75ZM619.06 68.6036C623.426 64.4999 625.625 59.4455 625.625 53.5H623.625C623.625 58.8879 621.658 63.4167 617.69 67.1464L619.06 68.6036ZM625.625 53.5C625.625 47.8045 623.51 42.8832 619.325 38.7855L617.925 40.2145C621.74 43.9501 623.625 48.3621 623.625 53.5H625.625ZM619.332 38.7929C615.151 34.6113 610.149 32.5 604.375 32.5V34.5C609.601 34.5 614.099 36.3887 617.918 40.2071L619.332 38.7929ZM674.625 179.75L673.625 179.747V179.75H674.625ZM675.125 3.875L676.125 3.87784V3.875H675.125ZM709.125 3.875L709.947 3.30563L709.936 3.29011L709.925 3.275L709.125 3.875ZM732.5 37.625L731.678 38.1944L732.502 39.3845L733.324 38.1923L732.5 37.625ZM755.75 3.875L754.95 3.275L754.938 3.29111L754.926 3.30769L755.75 3.875ZM790.125 3.875L789.125 3.875L789.125 3.87784L790.125 3.875ZM790.625 179.75L791.625 179.75L791.625 179.747L790.625 179.75ZM759.625 179.75L760.625 179.75L760.625 179.748L759.625 179.75ZM759.375 49.125L760.375 49.1231L760.369 45.9204L758.552 48.5576L759.375 49.125ZM732.5 88.125L731.674 88.6888L732.496 89.8929L733.323 88.6924L732.5 88.125ZM705.875 49.125L706.701 48.5612L704.881 45.8957L704.875 49.1231L705.875 49.125ZM705.625 179.75L704.625 179.748V179.75H705.625ZM704.625 180H675.625V182H704.625V180ZM675.625 180C675.561 180 675.551 179.99 675.572 179.999C675.6 180.01 675.633 180.034 675.656 180.063C675.675 180.087 675.667 180.089 675.654 180.039C675.64 179.987 675.625 179.895 675.625 179.75H673.625C673.625 180.274 673.725 180.851 674.094 181.312C674.497 181.816 675.071 182 675.625 182V180ZM675.625 179.753L676.125 3.87784L674.125 3.87216L673.625 179.747L675.625 179.753ZM676.125 3.875C676.125 3.83295 676.128 3.8025 676.131 3.78205C676.133 3.76167 676.136 3.75311 676.136 3.75373C676.136 3.75466 676.132 3.76462 676.123 3.78012C676.119 3.78778 676.113 3.79632 676.106 3.80535C676.099 3.81438 676.091 3.82339 676.082 3.83211C676.073 3.84082 676.064 3.84873 676.055 3.85576C676.046 3.86278 676.038 3.86852 676.03 3.87312C676.015 3.88242 676.005 3.88587 676.004 3.88618C676.003 3.88639 676.012 3.88348 676.032 3.88057C676.053 3.87765 676.083 3.875 676.125 3.875V1.875C675.638 1.875 675.088 1.99755 674.668 2.41789C674.248 2.83824 674.125 3.38752 674.125 3.875H676.125ZM676.125 3.875H707.375V1.875H676.125V3.875ZM707.375 3.875C707.649 3.875 707.961 3.99032 708.325 4.475L709.925 3.275C709.289 2.42635 708.435 1.875 707.375 1.875V3.875ZM708.303 4.44437L731.678 38.1944L733.322 37.0556L709.947 3.30563L708.303 4.44437ZM733.324 38.1923L756.574 4.44231L754.926 3.30769L731.676 37.0577L733.324 38.1923ZM756.55 4.475C756.885 4.02794 757.228 3.875 757.625 3.875V1.875C756.522 1.875 755.615 2.38873 754.95 3.275L756.55 4.475ZM757.625 3.875H789V1.875H757.625V3.875ZM789 3.875C789.117 3.875 789.181 3.88832 789.208 3.8963C789.232 3.90328 789.212 3.90176 789.179 3.87241C789.164 3.85844 789.149 3.84215 789.138 3.8251C789.127 3.80828 789.121 3.795 789.118 3.78862C789.114 3.77733 789.125 3.7996 789.125 3.875H791.125C791.125 3.35502 790.973 2.79112 790.508 2.37759C790.065 1.98401 789.502 1.875 789 1.875V3.875ZM789.125 3.87784L789.625 179.753L791.625 179.747L791.125 3.87216L789.125 3.87784ZM789.625 179.75C789.625 179.895 789.61 179.987 789.596 180.039C789.583 180.089 789.575 180.087 789.594 180.063C789.617 180.034 789.65 180.01 789.678 179.999C789.699 179.99 789.689 180 789.625 180V182C790.179 182 790.753 181.816 791.156 181.312C791.525 180.851 791.625 180.274 791.625 179.75H789.625ZM789.625 180H760.625V182H789.625V180ZM760.625 180C760.561 180 760.551 179.99 760.572 179.999C760.6 180.01 760.633 180.034 760.656 180.063C760.675 180.087 760.667 180.089 760.654 180.039C760.64 179.987 760.625 179.895 760.625 179.75H758.625C758.625 180.274 758.725 180.851 759.094 181.312C759.497 181.816 760.071 182 760.625 182V180ZM760.625 179.748L760.375 49.1231L758.375 49.1269L758.625 179.752L760.625 179.748ZM758.552 48.5576L731.677 87.5576L733.323 88.6924L760.198 49.6924L758.552 48.5576ZM733.326 87.5612L706.701 48.5612L705.049 49.6888L731.674 88.6888L733.326 87.5612ZM704.875 49.1231L704.625 179.748L706.625 179.752L706.875 49.1269L704.875 49.1231ZM704.625 179.75C704.625 179.895 704.61 179.987 704.596 180.039C704.583 180.089 704.575 180.087 704.594 180.063C704.617 180.034 704.65 180.01 704.678 179.999C704.699 179.99 704.689 180 704.625 180V182C705.179 182 705.753 181.816 706.156 181.312C706.525 180.851 706.625 180.274 706.625 179.75H704.625Z" fill="black"/>
</g>
<defs>
<filter id="filter0_d_19_12" x="0.125" y="0" width="794.5" height="191.5" filterUnits="userSpaceOnUse" color-interpolation-filters="sRGB">
<feFlood flood-opacity="0" result="BackgroundImageFix"/>
<feColorMatrix in="SourceAlpha" type="matrix" values="0 0 0 0 0 0 0 0 0 0 0 0 0 0 0 0 0 0 127 0" result="hardAlpha"/>
<feOffset dy="4"/>
<feGaussianBlur stdDeviation="2"/>
<feComposite in2="hardAlpha" operator="out"/>
<feColorMatrix type="matrix" values="0 0 0 0 0 0 0 0 0 0 0 0 0 0 0 0 0 0 0.25 0"/>
<feBlend mode="normal" in2="BackgroundImageFix" result="effect1_dropShadow_19_12"/>
<feBlend mode="normal" in="SourceGraphic" in2="effect1_dropShadow_19_12" result="shape"/>
</filter>
</defs>
</svg>
