<svg width="787" height="184" viewBox="0 0 787 184" fill="none" xmlns="http://www.w3.org/2000/svg">
<path d="M30.125 181H1.375C0.541667 181 0.125 180.583 0.125 179.75L0.625 3.875C0.625 3.20833 0.958333 2.875 1.625 2.875H83.625C84.4583 2.875 84.875 3.20833 84.875 3.875V32.75C84.875 33.4167 84.5417 33.75 83.875 33.75H31.375V73.5H83.875C84.5417 73.5 84.875 73.9167 84.875 74.75L85.125 103.75C85.125 104.417 84.7083 104.75 83.875 104.75H31.375V179.75C31.375 180.583 30.9583 181 30.125 181ZM99.25 179.75L131 3.875C131.167 3.20833 131.583 2.875 132.25 2.875H169.375C170.042 2.875 170.458 3.20833 170.625 3.875L201.125 179.75C201.208 180.583 200.875 181 200.125 181H171.75C170.917 181 170.458 180.583 170.375 179.75L167.625 161H132.75L130 179.75C129.917 180.583 129.5 181 128.75 181H100.25C99.5833 181 99.25 180.583 99.25 179.75ZM149.375 61.75L137.875 133.625H162.5L152 61.75L150.5 52.25L149.375 61.75ZM260.625 183.5C251.542 183.5 243.167 181.167 235.5 176.5C227.917 171.833 221.833 165.625 217.25 157.875C212.75 150.042 210.5 141.458 210.5 132.125V120.375C210.5 119.458 210.917 119 211.75 119H240.5C241.167 119 241.5 119.458 241.5 120.375V132.125C241.5 137.708 243.375 142.542 247.125 146.625C250.875 150.625 255.375 152.625 260.625 152.625C265.958 152.625 270.5 150.583 274.25 146.5C278 142.333 279.875 137.542 279.875 132.125C279.875 125.875 275.792 120.417 267.625 115.75C266.292 114.917 264.542 113.917 262.375 112.75C260.292 111.5 257.792 110.083 254.875 108.5C251.958 106.917 249.125 105.375 246.375 103.875C243.625 102.292 240.958 100.792 238.375 99.375C229.042 93.875 222.083 87 217.5 78.75C213 70.4167 210.75 61.0833 210.75 50.75C210.75 41.25 213.083 32.6667 217.75 25C222.417 17.4167 228.5 11.4167 236 7C243.583 2.5 251.792 0.25 260.625 0.25C269.708 0.25 278.042 2.5 285.625 7C293.208 11.5833 299.25 17.6667 303.75 25.25C308.333 32.8333 310.625 41.3333 310.625 50.75V71.75C310.625 72.4167 310.292 72.75 309.625 72.75H280.875C280.208 72.75 279.875 72.4167 279.875 71.75L279.625 50.75C279.625 44.75 277.75 39.875 274 36.125C270.25 32.375 265.792 30.5 260.625 30.5C255.375 30.5 250.875 32.5 247.125 36.5C243.375 40.5 241.5 45.25 241.5 50.75C241.5 56.3333 242.667 61 245 64.75C247.417 68.5 251.792 72.0833 258.125 75.5C258.792 75.8333 260.333 76.6667 262.75 78C265.167 79.3333 267.833 80.8333 270.75 82.5C273.75 84.0833 276.458 85.5417 278.875 86.875C281.292 88.125 282.75 88.875 283.25 89.125C291.75 93.875 298.458 99.7083 303.375 106.625C308.375 113.542 310.875 122.042 310.875 132.125C310.875 141.875 308.625 150.625 304.125 158.375C299.542 166.125 293.458 172.25 285.875 176.75C278.292 181.25 269.875 183.5 260.625 183.5ZM383.25 181H354.375C353.625 181 353.25 180.583 353.25 179.75V33.75H320C319.167 33.75 318.75 33.3333 318.75 32.5L319 3.875C319 3.20833 319.333 2.875 320 2.875H417.25C418.167 2.875 418.625 3.20833 418.625 3.875V32.5C418.625 33.3333 418.292 33.75 417.625 33.75H384L384.25 179.75C384.25 180.583 383.917 181 383.25 181ZM478.25 183.5C469 183.5 460.542 181.167 452.875 176.5C445.292 171.833 439.25 165.583 434.75 157.75C430.333 149.833 428.125 141.042 428.125 131.375L428.375 51.5C428.375 42 430.542 33.4167 434.875 25.75C439.208 18 445.167 11.7917 452.75 7.125C460.417 2.375 468.917 0 478.25 0C487.75 0 496.208 2.29167 503.625 6.875C511.125 11.4583 517.083 17.6667 521.5 25.5C526 33.25 528.25 41.9167 528.25 51.5V63.25C528.25 63.9167 527.917 64.25 527.25 64.25H498.5C497.833 64.25 497.5 63.9167 497.5 63.25V51.5C497.5 45.8333 495.667 40.9583 492 36.875C488.333 32.7917 483.75 30.75 478.25 30.75C472.167 30.75 467.5 32.8333 464.25 37C461 41.1667 459.375 46 459.375 51.5V131.375C459.375 137.625 461.208 142.75 464.875 146.75C468.542 150.667 473 152.625 478.25 152.625C483.75 152.625 488.333 150.458 492 146.125C495.667 141.708 497.5 136.792 497.5 131.375V119.5C497.5 118.833 497.833 118.5 498.5 118.5H527.5C528.167 118.5 528.5 118.833 528.5 119.5V131.375C528.5 140.958 526.25 149.708 521.75 157.625C517.167 165.458 511.125 171.75 503.625 176.5C496.125 181.167 487.667 183.5 478.25 183.5ZM577.125 181H548.125C547.458 181 547.125 180.583 547.125 179.75L547.625 3.875C547.625 3.20833 547.958 2.875 548.625 2.875H600.375C609.625 2.875 618.125 5.125 625.875 9.625C633.625 14.125 639.792 20.1667 644.375 27.75C649.042 35.3333 651.375 43.9167 651.375 53.5C651.375 59.75 650.417 65.4167 648.5 70.5C646.583 75.5833 644.333 79.875 641.75 83.375C639.25 86.875 636.958 89.4583 634.875 91.125C644.125 101.375 648.75 113.417 648.75 127.25L649 179.75C649 180.583 648.583 181 647.75 181H618.75C618.083 181 617.75 180.75 617.75 180.25V127.25C617.75 121.083 615.583 115.75 611.25 111.25C606.917 106.75 601.583 104.5 595.25 104.5H578.375L578.125 179.75C578.125 180.583 577.792 181 577.125 181ZM600.375 33.5H578.375V73.75H600.375C605.625 73.75 610.292 71.7917 614.375 67.875C618.542 63.9583 620.625 59.1667 620.625 53.5C620.625 48.0833 618.625 43.4167 614.625 39.5C610.625 35.5 605.875 33.5 600.375 33.5ZM700.625 181H671.625C670.958 181 670.625 180.583 670.625 179.75L671.125 3.875C671.125 3.20833 671.458 2.875 672.125 2.875H703.375C704.042 2.875 704.625 3.20833 705.125 3.875L728.5 37.625L751.75 3.875C752.25 3.20833 752.875 2.875 753.625 2.875H785C785.75 2.875 786.125 3.20833 786.125 3.875L786.625 179.75C786.625 180.583 786.292 181 785.625 181H756.625C755.958 181 755.625 180.583 755.625 179.75L755.375 49.125L728.5 88.125L701.875 49.125L701.625 179.75C701.625 180.583 701.292 181 700.625 181Z" fill="#0094FF"/>
</svg>
